<svg xmlns="http://www.w3.org/2000/svg" xmlns:xlink="http://www.w3.org/1999/xlink" width="500" zoomAndPan="magnify" viewBox="0 0 375 225" height="300" preserveAspectRatio="xMidYMid meet" version="1.0"><defs><g/><clipPath id="6de4a5ca30"><path d="M 76 59 L 187 59 L 187 179 L 76 179 Z M 76 59 " clip-rule="nonzero"/></clipPath><clipPath id="1c04360827"><path d="M 87.097656 59.367188 L 197.046875 70.34375 L 186.203125 178.933594 L 76.257812 167.957031 Z M 87.097656 59.367188 " clip-rule="nonzero"/></clipPath><clipPath id="d72d34d5bd"><path d="M 129.4375 116.527344 L 145.804688 116.527344 L 145.804688 132.894531 L 129.4375 132.894531 Z M 129.4375 116.527344 " clip-rule="nonzero"/></clipPath></defs><rect x="-37.5" width="450" fill="#ffffff" y="-22.5" height="270" fill-opacity="1"/><rect x="-37.5" width="450" fill="#ffffff" y="-22.5" height="270" fill-opacity="1"/><rect x="-37.5" width="450" fill="#ffffff" y="-22.5" height="270" fill-opacity="1"/><path fill="#ff87b2" d="M 10.5 0 L 364.5 0 C 370.300781 0 375 4.699219 375 10.5 L 375 214.5 C 375 220.300781 370.300781 225 364.5 225 L 10.5 225 C 4.699219 225 0 220.300781 0 214.5 L 0 10.5 C 0 4.699219 4.699219 0 10.5 0 " fill-opacity="1" fill-rule="nonzero"/><g fill="#ffffff" fill-opacity="1"><g transform="translate(129.436898, 124.837622)"><g><path d="M 14.003906 0.542969 C 16.027344 0.589844 18.046875 0.34375 19.972656 -0.195312 C 20.515625 -0.34375 21.054688 -0.492188 21.597656 -0.691406 C 23.621094 -1.527344 25.148438 -2.613281 26.136719 -3.996094 C 27.121094 -5.324219 27.613281 -6.902344 27.613281 -8.53125 C 27.613281 -10.207031 27.21875 -11.6875 26.332031 -12.96875 C 25.445312 -14.25 24.359375 -15.335938 23.078125 -16.222656 C 21.796875 -17.113281 20.121094 -18.097656 18 -19.230469 C 16.222656 -20.21875 14.792969 -21.054688 13.757812 -21.746094 C 12.671875 -22.488281 11.785156 -23.324219 11.046875 -24.261719 C 10.304688 -25.199219 9.960938 -26.332031 9.960938 -27.515625 C 9.960938 -29.09375 10.453125 -30.375 11.390625 -31.410156 C 12.625 -32.695312 14.449219 -32.988281 16.125 -32.59375 C 17.605469 -32.300781 19.082031 -31.757812 20.414062 -31.015625 C 21.5 -30.375 22.535156 -29.585938 23.324219 -28.601562 C 23.71875 -28.058594 24.113281 -27.367188 24.410156 -26.726562 L 25 -24.65625 L 25.445312 -24.65625 L 25.445312 -32.890625 L 25 -32.890625 C 25 -32.890625 24.902344 -31.214844 24.851562 -31.066406 C 24.753906 -30.375 24.507812 -29.585938 23.621094 -29.882812 C 22.832031 -30.082031 22.140625 -30.671875 21.449219 -31.117188 C 19.230469 -32.496094 16.914062 -33.582031 14.300781 -33.730469 C 12.378906 -33.828125 10.40625 -33.582031 8.53125 -33.089844 L 7.25 -32.644531 C 5.425781 -31.90625 4.09375 -30.917969 3.207031 -29.734375 C 2.316406 -28.503906 1.875 -27.121094 1.875 -25.640625 C 1.875 -23.71875 2.367188 -22.042969 3.304688 -20.613281 C 4.242188 -19.230469 5.375 -18.046875 6.707031 -17.113281 C 8.085938 -16.175781 9.863281 -15.089844 12.03125 -13.957031 C 13.757812 -12.96875 15.140625 -12.179688 16.074219 -11.539062 C 17.0625 -10.898438 17.902344 -10.160156 18.542969 -9.320312 C 19.230469 -8.480469 19.578125 -7.496094 19.578125 -6.410156 C 19.578125 -4.535156 18.984375 -3.058594 17.800781 -1.921875 C 15.632812 0.148438 12.230469 0.0507812 9.617188 -1.035156 C 8.875 -1.332031 8.085938 -1.726562 7.398438 -2.167969 C 5.71875 -3.253906 4.4375 -4.683594 3.746094 -6.558594 L 3.304688 -8.1875 L 2.910156 -8.1875 L 2.910156 0 L 3.304688 0.0507812 C 3.304688 0.0507812 3.402344 -1.628906 3.453125 -1.773438 C 3.550781 -2.515625 3.796875 -3.253906 4.734375 -2.957031 C 5.324219 -2.8125 5.867188 -2.367188 6.410156 -2.023438 C 8.679688 -0.492188 11.242188 0.445312 14.003906 0.542969 Z M 14.003906 0.542969 "/></g></g></g><g fill="#ffffff" fill-opacity="1"><g transform="translate(156.361228, 124.837622)"><g><path d="M 22.488281 0 L 22.488281 -0.34375 C 22.488281 -0.34375 21.351562 -0.246094 20.515625 -0.839844 L 20.464844 -0.839844 L 20.265625 -0.984375 C 20.265625 -1.035156 20.21875 -1.035156 20.21875 -1.035156 L 20.070312 -1.234375 L 19.972656 -1.332031 C 19.921875 -1.378906 19.921875 -1.429688 19.871094 -1.527344 L 19.773438 -1.628906 C 19.773438 -1.726562 19.726562 -1.773438 19.726562 -1.824219 C 19.675781 -1.921875 19.675781 -1.972656 19.625 -2.023438 C 19.625 -2.070312 19.625 -2.167969 19.578125 -2.21875 C 19.578125 -2.316406 19.527344 -2.417969 19.527344 -2.464844 L 19.527344 -2.710938 C 19.527344 -2.8125 19.476562 -2.910156 19.476562 -3.058594 L 19.476562 -29.785156 C 19.476562 -31.015625 19.972656 -31.660156 20.5625 -32.054688 L 25.050781 -32.054688 C 25.050781 -32.054688 29.292969 -32.59375 29.292969 -25.496094 L 29.785156 -25.496094 L 29.785156 -32.84375 L 1.378906 -32.84375 L 1.378906 -25.496094 L 1.875 -25.496094 C 1.875 -32.59375 6.113281 -32.054688 6.113281 -32.054688 L 10.601562 -32.054688 C 11.195312 -31.660156 11.6875 -31.015625 11.6875 -29.785156 L 11.6875 -3.058594 C 11.6875 -2.910156 11.636719 -2.8125 11.636719 -2.710938 L 11.636719 -2.464844 C 11.636719 -2.417969 11.589844 -2.316406 11.589844 -2.21875 L 11.539062 -2.023438 C 11.488281 -1.972656 11.488281 -1.921875 11.441406 -1.824219 C 11.441406 -1.773438 11.390625 -1.726562 11.390625 -1.628906 L 11.292969 -1.527344 C 11.242188 -1.429688 11.242188 -1.378906 11.195312 -1.332031 L 11.09375 -1.234375 L 10.949219 -1.035156 C 10.949219 -1.035156 10.898438 -1.035156 10.898438 -0.984375 L 10.699219 -0.839844 L 10.652344 -0.839844 C 9.8125 -0.246094 8.679688 -0.34375 8.679688 -0.34375 L 8.679688 0 Z M 22.488281 0 "/></g></g></g><g fill="#ffffff" fill-opacity="1"><g transform="translate(185.258051, 124.837622)"><g><path d="M 7.792969 -0.445312 C 7.792969 -0.445312 3.402344 -0.394531 4.09375 -2.121094 C 4.683594 -3.550781 8.382812 -12.179688 8.382812 -12.179688 L 17.605469 -12.179688 C 18.6875 -9.714844 20.5625 -4.636719 22.289062 -2.5625 C 24.902344 0.589844 29.441406 -0.0507812 33.089844 -0.0507812 L 34.46875 -0.0507812 L 34.46875 -0.445312 C 34.46875 -0.445312 32.890625 -0.445312 31.804688 -1.378906 C 29.292969 -3.550781 17.457031 -32.347656 17.0625 -33.335938 L 17.0625 -33.382812 L 16.617188 -33.382812 L 3.007812 -2.121094 C 2.316406 -0.492188 -1.035156 -0.445312 -1.035156 -0.445312 L -1.035156 -0.0507812 L 7.792969 -0.0507812 Z M 17.257812 -12.96875 L 8.726562 -12.96875 L 13.117188 -22.980469 Z M 17.257812 -12.96875 "/></g></g></g><g fill="#ffffff" fill-opacity="1"><g transform="translate(216.373929, 124.837622)"><g><path d="M 32.25 -1.378906 C 31.558594 -1.921875 28.75 -7.542969 28.75 -7.542969 L 27.21875 -10.652344 C 26.429688 -12.378906 24.902344 -13.5625 22.632812 -14.25 C 21.699219 -14.496094 20.613281 -14.644531 19.429688 -14.746094 L 19.183594 -14.746094 C 22.980469 -14.992188 25.445312 -15.828125 27.320312 -17.210938 C 31.164062 -19.972656 31.707031 -24.804688 29.191406 -28.652344 C 28.652344 -29.390625 28.058594 -30.03125 27.367188 -30.574219 C 24.410156 -32.84375 20.019531 -33.089844 16.371094 -33.089844 L 2.613281 -33.089844 L 2.613281 -32.742188 C 2.613281 -32.742188 5.621094 -33.039062 5.621094 -30.03125 L 5.621094 -3.304688 C 5.621094 -0.246094 2.613281 -0.640625 2.613281 -0.640625 L 2.613281 -0.246094 L 16.421875 -0.246094 L 16.421875 -0.640625 C 16.421875 -0.640625 13.460938 -0.246094 13.460938 -3.304688 L 13.460938 -14.644531 L 14.25 -14.644531 C 18.296875 -13.855469 20.121094 -7.199219 20.121094 -7.199219 C 21.054688 -5.226562 21.84375 -3.15625 23.570312 -1.675781 C 25.296875 -0.246094 27.566406 -0.0507812 29.734375 0 C 30.96875 0 32.25 -0.0507812 33.53125 -0.0507812 L 34.863281 -0.0507812 L 34.863281 -0.394531 C 34.863281 -0.445312 33.285156 -0.445312 32.25 -1.378906 Z M 13.460938 -15.433594 L 13.460938 -32.300781 L 16.371094 -32.300781 C 23.175781 -32.300781 24.3125 -21.945312 20.808594 -17.800781 C 19.476562 -16.222656 18.542969 -15.433594 16.371094 -15.433594 Z M 13.460938 -15.433594 "/></g></g></g><g clip-path="url(#6de4a5ca30)"><g clip-path="url(#1c04360827)"><path fill="#ff87b2" d="M 186.203125 178.933594 L 76.257812 167.953125 L 87.097656 59.371094 L 186.203125 178.933594 " fill-opacity="1" fill-rule="nonzero"/></g></g><g clip-path="url(#d72d34d5bd)"><path fill="#ffffff" d="M 137.621094 116.527344 C 137.621094 121.046875 133.957031 124.710938 129.4375 124.710938 C 133.957031 124.710938 137.621094 128.375 137.621094 132.894531 C 137.621094 128.375 141.285156 124.710938 145.804688 124.710938 C 141.285156 124.710938 137.621094 121.046875 137.621094 116.527344 Z M 137.621094 116.527344 " fill-opacity="1" fill-rule="nonzero"/></g><g fill="#ff87b2" fill-opacity="1"><g transform="translate(232.459053, 135.278739)"><g><path d="M 1.789062 -1.1875 L 1.789062 -4.65625 L 2.179688 -4.65625 C 3.175781 -4.65625 3.847656 -3.898438 3.847656 -2.925781 C 3.847656 -1.953125 3.167969 -1.1875 2.179688 -1.1875 Z M 0.515625 -5.851562 L 0.515625 0 L 2.253906 0 C 3.917969 0 5.164062 -1.273438 5.164062 -2.925781 C 5.164062 -4.578125 3.90625 -5.851562 2.253906 -5.851562 Z M 0.515625 -5.851562 "/></g></g></g><g fill="#ff87b2" fill-opacity="1"><g transform="translate(238.570612, 135.278739)"><g><path d="M 3.90625 -1.171875 L 1.808594 -1.171875 L 1.808594 -2.351562 L 3.820312 -2.351562 L 3.820312 -3.519531 L 1.808594 -3.519531 L 1.808594 -4.683594 L 3.90625 -4.683594 L 3.90625 -5.851562 L 0.515625 -5.851562 L 0.515625 0 L 3.90625 0 Z M 3.90625 -1.171875 "/></g></g></g><g fill="#ff87b2" fill-opacity="1"><g transform="translate(243.640622, 135.278739)"><g><path d="M 5.886719 -5.851562 L 4.492188 -5.851562 L 3.28125 -2.566406 L 2.960938 -1.644531 L 2.644531 -2.566406 L 1.4375 -5.851562 L 0.0429688 -5.851562 L 2.410156 0 L 3.519531 0 Z M 5.886719 -5.851562 "/></g></g></g></svg>